<svg width="24" height="24" viewBox="0 0 24 24" fill="none" xmlns="http://www.w3.org/2000/svg">
<path d="M18.8775 17.3349C18.7568 18.2314 18.1536 19.0072 17.3089 19.352C16.8951 19.5242 16.4471 19.576 15.9988 19.5242C15.568 19.4725 15.1369 19.3346 14.6889 19.0763C14.0682 18.7312 13.4476 18.197 12.7237 17.404C13.8614 16.0078 14.5508 14.7321 14.8094 13.5947C14.9301 13.0602 14.9473 12.5775 14.8957 12.1292C14.8268 11.6984 14.6716 11.3018 14.4302 10.9571C13.8959 10.1815 12.9996 9.73321 11.9997 9.73321C10.9999 9.73321 10.1036 10.1987 9.56927 10.9571C9.32784 11.3018 9.17286 11.6984 9.1038 12.1292C9.03492 12.5775 9.05214 13.0774 9.19008 13.5947C9.44855 14.7321 10.1553 16.025 11.2758 17.421C10.5691 18.2142 9.93124 18.7486 9.31062 19.0933C8.86255 19.352 8.43152 19.4899 8.00067 19.5414C7.53521 19.5932 7.08696 19.5242 6.69055 19.3692C5.84589 19.0244 5.24267 18.2485 5.12195 17.3522C5.07029 16.9213 5.10473 16.4905 5.27711 16.0078C5.32877 15.8352 5.41504 15.6632 5.50114 15.4562C5.62186 15.1805 5.75979 14.8873 5.89756 14.5942L5.91495 14.5599C7.10418 11.9913 8.37986 9.37124 9.7072 6.82023L9.75886 6.71656C9.8968 6.45826 10.0346 6.18256 10.1727 5.92391C10.3104 5.64804 10.4656 5.38939 10.6552 5.16518C11.0172 4.75138 11.4998 4.52734 12.0342 4.52734C12.5685 4.52734 13.0512 4.75138 13.4132 5.16518C13.6028 5.38939 13.7579 5.64804 13.8959 5.92391C14.0338 6.18256 14.1716 6.45826 14.3095 6.71656L14.3613 6.82023C15.6713 9.38846 16.947 12.0085 18.1364 14.5771V14.5942C18.2743 14.87 18.3948 15.1805 18.5328 15.4562C18.6191 15.6632 18.7052 15.8352 18.7568 16.0078C18.8948 16.4559 18.9464 16.887 18.8775 17.3349ZM11.9997 16.5247C11.069 15.3527 10.4656 14.2494 10.2588 13.3188C10.1727 12.9222 10.1553 12.5775 10.2071 12.2672C10.2415 11.9913 10.345 11.7499 10.4828 11.5429C10.8103 11.0779 11.3619 10.7843 11.9997 10.7843C12.6376 10.7843 13.2064 11.0604 13.5167 11.5429C13.6544 11.7499 13.7579 11.9913 13.7924 12.2672C13.844 12.5775 13.8268 12.9395 13.7407 13.3188C13.5339 14.2324 12.9305 15.3355 11.9997 16.5247ZM19.7739 15.6284C19.6877 15.4216 19.6015 15.1976 19.5154 15.008C19.3774 14.6978 19.2395 14.4046 19.1188 14.1287L19.1016 14.1116C17.9123 11.5258 16.6367 8.90578 15.2921 6.32049L15.2404 6.21683C15.1025 5.95818 14.9646 5.68231 14.8268 5.40661C14.6543 5.09613 14.4819 4.76894 14.2062 4.45846C13.6544 3.76896 12.8616 3.38977 12.017 3.38977C11.1551 3.38977 10.3795 3.76896 9.81053 4.42419C9.55205 4.73433 9.36245 5.06186 9.19008 5.37234C9.05214 5.64804 8.91421 5.92391 8.77627 6.18256L8.72461 6.28571C7.39744 8.87134 6.10454 11.4916 4.91514 14.0772L4.89792 14.1116C4.7772 14.3873 4.63927 14.6803 4.50133 14.9907C4.41523 15.1805 4.32896 15.3873 4.24286 15.6114C4.01865 16.249 3.94977 16.8524 4.03587 17.4729C4.22564 18.7658 5.08751 19.8519 6.27692 20.3344C6.72499 20.5241 7.19046 20.6102 7.67314 20.6102C7.81108 20.6102 7.98345 20.593 8.12139 20.5756C8.69017 20.5066 9.27618 20.3173 9.84497 19.9896C10.5519 19.5932 11.2241 19.0244 11.9825 18.197C12.7409 19.0244 13.4304 19.5932 14.1199 19.9896C14.6889 20.3173 15.2749 20.5066 15.8437 20.5756C15.9816 20.593 16.154 20.6102 16.2919 20.6102C16.7746 20.6102 17.2571 20.5241 17.6881 20.3344C18.8948 19.8519 19.7394 18.7486 19.929 17.4729C20.0669 16.8695 19.9979 16.2664 19.7739 15.6284Z" fill="#E0565B"/>
</svg>
