<svg width="25" height="24" viewBox="0 0 25 24" fill="none" xmlns="http://www.w3.org/2000/svg">
<path d="M13.5 16.4444H7.55556L4 20V5.77778C4 5.30628 4.1873 4.8541 4.5207 4.5207C4.8541 4.1873 5.30628 4 5.77778 4H18.2222C18.6937 4 19.1459 4.1873 19.4793 4.5207C19.8127 4.8541 20 5.30628 20 5.77778V8.5" stroke="#3A3F4A" stroke-linecap="round" stroke-linejoin="round"/>
<g clip-path="url(#clip0_1192_26018)">
<path fill-rule="evenodd" clip-rule="evenodd" d="M19.5476 10.1648C19.8285 9.82038 20.3756 10.0558 20.3312 10.502L20.0174 13.6367H22.5557C22.6402 13.6367 22.7229 13.6614 22.7941 13.7077C22.8654 13.7541 22.9222 13.8202 22.9581 13.8984C22.9939 13.9766 23.0072 14.0636 22.9963 14.1493C22.9855 14.2349 22.9511 14.3156 22.8971 14.382L18.4524 19.8352C18.1715 20.1796 17.6244 19.9442 17.6688 19.498L17.9826 16.3633H15.4443C15.3598 16.3633 15.2771 16.3386 15.2059 16.2923C15.1346 16.2459 15.0778 16.1798 15.0419 16.1016C15.0061 16.0234 14.9928 15.9364 15.0037 15.8507C15.0145 15.7651 15.0489 15.6844 15.1029 15.618L19.5476 10.1648Z" fill="#8434F4"/>
</g>
<defs>
<clipPath id="clip0_1192_26018">
<rect width="12" height="12" fill="white" transform="translate(13 9)"/>
</clipPath>
</defs>
</svg>
