<svg width="24" height="25" viewBox="0 0 24 25" fill="none" xmlns="http://www.w3.org/2000/svg">
<g clip-path="url(#clip0_539_18797)">
<path fill-rule="evenodd" clip-rule="evenodd" d="M20 7.40119C20 5.74305 18.6532 4.39685 16.995 4.39685H7.00493C5.34681 4.39685 4 5.74305 4 7.40119V17.0404C4 18.6981 5.34681 20.0447 7.00495 20.0447H16.9951C18.6532 20.0447 20 18.6981 20 17.0404L20 7.40119Z" fill="#163A90"/>
<path d="M11.2716 14.7543L9.98295 14.753V13.2121C9.98295 12.8829 10.1107 12.7116 10.3924 12.6724H11.2716C11.8987 12.6724 12.3043 13.0677 12.3043 13.7076C12.3043 14.3648 11.9089 14.7537 11.2716 14.7543H11.2716ZM9.98295 10.5982V10.1926C9.98295 9.83768 10.1331 9.66889 10.4624 9.64707H11.1221C11.6875 9.64707 12.0264 9.98529 12.0264 10.552C12.0264 10.9833 11.794 11.487 11.1426 11.487H9.98295V10.5982ZM12.9171 12.1359L12.6842 12.005L12.8876 11.831C13.1244 11.6276 13.5211 11.17 13.5211 10.3806C13.5211 9.17152 12.5834 8.39176 11.1324 8.39176H9.47659V8.39111H9.2879C8.85791 8.40716 8.51328 8.75693 8.50879 9.18949V16.0501H11.1651C12.7779 16.0501 13.8188 15.1721 13.8188 13.8122C13.8188 13.0799 13.4826 12.4542 12.9171 12.1359Z" fill="white"/>
<path d="M14.5107 15.1029C14.5107 14.5788 14.9334 14.1548 15.4542 14.1548C15.9763 14.1548 16.401 14.5788 16.401 15.1029C16.401 15.6263 15.9763 16.051 15.4542 16.051C14.9334 16.051 14.5107 15.6263 14.5107 15.1029Z" fill="white"/>
</g>
<defs>
<clipPath id="clip0_539_18797">
<rect width="16" height="15.648" fill="white" transform="translate(4 4.39673)"/>
</clipPath>
</defs>
</svg>
