<svg width="25" height="25" viewBox="0 0 25 25" fill="none" xmlns="http://www.w3.org/2000/svg">
<path fill-rule="evenodd" clip-rule="evenodd" d="M11.9461 5.52846L19.3035 10.74V19.6845H13.1326C12.3421 20.3233 11.8054 20.701 10.7145 21.234H20.0008C20.4715 21.234 20.853 20.8524 20.853 20.3818V11.9372H21.216C21.9787 11.9372 22.2909 10.9572 21.6683 10.5162L12.4155 3.96216C12.3275 3.8951 12.1563 3.79495 11.9177 3.80308C11.6942 3.81069 11.5431 3.91128 11.4921 3.94768C11.4044 4.01034 5.16041 8.47168 2.56716 10.544C2.26616 10.7845 2.21246 11.1701 2.33538 11.46C2.45124 11.7332 2.72476 11.9372 3.05627 11.9372H3.42155V20.3818C3.42155 20.8437 3.79374 21.234 4.27309 21.234H8.84467C9.18352 21.234 9.56303 21.1074 9.89433 20.9695C10.2531 20.8203 10.6621 20.6112 11.0946 20.3616C11.9608 19.8615 12.9669 19.1724 13.9246 18.3988C14.8798 17.6273 15.8108 16.7526 16.5107 15.8769C17.1752 15.0455 17.7392 14.082 17.7538 13.1368C17.9098 11.2778 16.6303 9.61302 14.6552 9.61302C13.8727 9.61302 13.217 9.82848 12.6568 10.2431C12.4114 10.4248 12.1933 10.6382 11.9951 10.8733C11.7767 10.5979 11.5272 10.3614 11.2404 10.1692C10.6491 9.77308 9.97004 9.61302 9.23203 9.61302C8.3843 9.61302 7.55898 9.94486 6.96671 10.5755C6.37245 11.2083 6.05432 12.097 6.13339 13.1337C6.14432 13.7885 6.46476 14.417 6.81212 14.9274C7.17969 15.4674 7.65566 15.9869 8.11006 16.4301C8.56781 16.8765 9.02267 17.2638 9.36151 17.5385C9.5315 17.6763 9.67364 17.7869 9.77413 17.8636C9.8244 17.902 9.86432 17.932 9.89219 17.9527L9.92476 17.9768L9.93387 17.9835L9.93744 17.9862C10.3825 17.798 10.9834 17.4281 11.4342 17.0352C11.1193 16.78 9.60573 15.7244 9.19191 15.3208C8.77473 14.914 8.37913 14.4758 8.09302 14.0555C7.79279 13.6144 7.68257 13.293 7.68257 13.0993V13.0671L7.67989 13.0349C7.62559 12.3841 7.82212 11.9281 8.09618 11.6362C8.37795 11.3362 8.78566 11.1625 9.23203 11.1625C9.74161 11.1625 10.1002 11.2704 10.378 11.4565C10.66 11.6454 10.9296 11.9625 11.1756 12.5022C11.4581 13.1221 12.3333 13.1854 12.6893 12.5831C13.0009 12.056 13.2821 11.708 13.5787 11.4885C13.8547 11.2842 14.1823 11.1625 14.6552 11.1625C15.6104 11.1625 16.3095 11.9397 16.208 13.0273L16.2046 13.0632V13.0993C16.2046 13.4979 15.9331 14.1178 15.3003 14.9095C14.694 15.6681 13.8542 16.4639 12.951 17.1934C12.0504 17.9209 11.1104 18.5633 10.3199 19.0196C9.92401 19.2482 9.57705 19.4233 9.29922 19.5389C9.16041 19.5967 9.04803 19.6357 8.96185 19.6593C8.87913 19.6821 8.84329 19.6845 8.84329 19.6845L8.84427 19.6845H4.97101V10.6413C7.35328 8.83336 10.7397 6.39409 11.9461 5.52846ZM18.1626 3.94434C18.2054 3.94434 18.2401 3.97903 18.2401 4.02182V7.05901L16.6906 6.01595V4.02182C16.6906 3.97903 16.7253 3.94434 16.7681 3.94434H18.1626Z" fill="#3E434C"/>
</svg>
