<svg width="26" height="27" viewBox="0 0 26 27" fill="none" xmlns="http://www.w3.org/2000/svg">
<path d="M25.7899 25.2459V23.0759L25.7699 23.0259C25.7699 23.0259 25.7499 22.9859 25.7499 22.9659C25.7499 22.9659 25.7299 22.9259 25.7299 22.9059C25.7299 22.9059 25.7099 22.8559 25.6999 22.8359C25.6999 22.8159 25.6799 22.7959 25.6699 22.7759C25.6699 22.7759 25.6399 22.7259 25.6299 22.7059C25.6299 22.7059 25.6199 22.6759 25.6099 22.6659V22.6559L25.3599 22.8059L25.6199 22.6559C25.6199 22.6559 25.5899 22.5959 25.5699 22.5859C25.5699 22.5859 25.5499 22.5559 25.5299 22.5359C25.5299 22.5359 25.5299 22.5359 25.5299 22.5259C25.5299 22.5259 25.5099 22.4959 25.4999 22.4859C25.4999 22.4859 25.4699 22.4559 25.4599 22.4359C25.4599 22.4359 25.4399 22.4059 25.4299 22.4059C25.4099 22.3859 25.3899 22.3659 25.3699 22.3459C25.3699 22.3459 25.3399 22.3159 25.3199 22.3059C25.2699 22.2659 25.2099 22.2259 25.1499 22.1959C25.1499 22.1959 25.1499 22.1959 25.1399 22.1759C25.1299 22.1459 25.1099 22.0859 25.1099 21.9959C25.1099 20.2059 25.1099 18.3859 25.1099 16.6159V15.0159C25.1099 14.3759 25.1099 13.7259 25.1099 13.0759C25.1099 13.0059 25.1099 12.9659 25.1299 12.9359C25.1399 12.9059 25.1599 12.8759 25.2299 12.8359C25.3099 12.7959 25.3899 12.7359 25.4499 12.6759C25.4499 12.6759 25.4699 12.6559 25.4899 12.6359C25.4899 12.6359 25.5499 12.5659 25.5799 12.5259C25.5799 12.5259 25.5999 12.4859 25.6099 12.4759C25.6099 12.4759 25.6499 12.4059 25.6699 12.3659C25.6699 12.3659 25.7099 12.2959 25.7199 12.2559C25.7199 12.2559 25.7499 12.1759 25.7699 12.1459C25.7699 12.1259 25.7899 12.1059 25.7899 12.0859C25.7899 12.0859 25.7899 12.0859 25.7899 12.0759L25.8099 12.0259V9.81586L25.7899 9.75586C25.7499 9.66586 25.7099 9.57586 25.6699 9.49586C25.6699 9.49586 25.6499 9.45586 25.6399 9.44586C25.6399 9.44586 25.6399 9.43586 25.6299 9.42586C25.6299 9.42586 25.6099 9.38586 25.5999 9.37586C25.5999 9.37586 25.5899 9.35586 25.5799 9.34586C25.5799 9.34586 25.5599 9.32586 25.5599 9.30586C25.5199 9.24586 25.4799 9.19586 25.4299 9.14586C25.4299 9.14586 25.4099 9.12586 25.3999 9.11586C25.3899 9.10586 25.3699 9.08586 25.3599 9.07586C25.3599 9.07586 25.3399 9.06586 25.3299 9.05586C25.3299 9.05586 25.3199 9.05586 25.3099 9.04586C25.3099 9.04586 25.3099 9.04586 25.2999 9.04586C25.2999 9.04586 25.2799 9.02586 25.2699 9.02586C25.2699 9.02586 25.2399 9.00586 25.2299 9.00586C25.2299 9.00586 25.1499 8.96586 25.1199 8.94586C25.1199 8.94586 25.0899 8.93586 25.0699 8.92586C25.0699 8.92586 25.0399 8.92586 25.0399 8.91586C25.0399 8.91586 24.9899 8.90586 24.9699 8.89586C24.9499 8.89586 24.9299 8.89586 24.9199 8.88586C24.9199 8.88586 24.8999 8.88586 24.8899 8.88586C24.8899 8.88586 24.8799 8.88586 24.8699 8.88586C24.8399 8.88586 24.8099 8.87586 24.7799 8.86586C24.7799 8.86586 24.7499 8.86586 24.7299 8.86586C24.6799 8.86586 24.6299 8.86586 24.5699 8.85586C24.5699 8.85586 24.4999 8.85586 24.4599 8.85586C24.4099 8.85586 24.3599 8.85586 24.2999 8.85586H19.2999C19.2499 8.85586 19.1699 8.85586 19.0999 8.85586C18.8299 8.89586 18.6199 9.12586 18.6199 9.40586H18.9199H18.6299C18.6299 9.69586 18.8399 9.93586 19.1199 9.97586C19.1199 9.97586 19.1599 9.97586 19.1899 9.97586C19.1899 9.97586 19.2799 9.97586 19.3099 9.97586H24.4699C24.6799 9.97586 24.7299 10.0159 24.7399 10.0259C24.7399 10.0259 24.7899 10.0859 24.7899 10.2959C24.7899 10.7059 24.7899 11.1159 24.7899 11.5259V11.6659C24.7899 11.9259 24.7499 11.9759 24.7399 11.9759C24.7399 11.9759 24.6899 12.0259 24.4299 12.0259H9.73994V9.97586H14.4399C14.6799 9.97586 14.8799 9.92586 15.0199 9.77586C15.1599 9.62586 15.1499 9.45586 15.1499 9.41586C15.1499 9.31586 15.1299 9.23586 15.0999 9.16586C15.0699 9.09586 15.0199 9.04586 15.0099 9.03586C14.8599 8.88586 14.6399 8.85586 14.4599 8.85586H9.73994C9.71994 8.78586 9.69994 8.72586 9.66994 8.66586C9.63994 8.59586 9.58994 8.50586 9.49994 8.44586C9.40994 8.37586 9.30994 8.35586 9.22994 8.35586C9.15994 8.35586 9.06994 8.35586 8.98994 8.35586H3.65994C3.57994 8.35586 3.48994 8.35586 3.40994 8.36586C3.32994 8.37586 3.23994 8.39586 3.14994 8.46586C3.05994 8.52586 3.00994 8.61586 2.97994 8.68586C2.94994 8.73586 2.92994 8.80586 2.90994 8.86586H2.63994C2.57994 8.86586 2.51994 8.86586 2.45994 8.86586C2.39994 8.86586 2.33994 8.86586 2.28994 8.86586C2.03994 8.86586 1.77994 8.86586 1.51994 8.86586C1.18994 8.86586 0.889941 8.96586 0.649941 9.17586C0.639941 9.18586 0.619941 9.20586 0.609941 9.20586C0.609941 9.20586 0.579941 9.23586 0.569941 9.24586C0.569941 9.24586 0.569941 9.24586 0.559941 9.25586C0.559941 9.25586 0.529941 9.29586 0.509941 9.31586C0.509941 9.31586 0.489941 9.34586 0.479941 9.35586C0.479941 9.35586 0.459941 9.38586 0.449941 9.39586C0.449941 9.39586 0.399941 9.46586 0.379941 9.49586C0.379941 9.49586 0.379941 9.50586 0.379941 9.51586C0.379941 9.52586 0.379941 9.52586 0.379941 9.53586L0.639941 9.68586L0.379941 9.54586C0.379941 9.55586 0.369941 9.57586 0.359941 9.58586C0.359941 9.58586 0.359941 9.58586 0.359941 9.59586C0.359941 9.59586 0.339941 9.62586 0.339941 9.64586C0.339941 9.64586 0.329941 9.67586 0.319941 9.68586C0.319941 9.68586 0.309941 9.71586 0.299941 9.73586C0.299941 9.73586 0.299941 9.73586 0.299941 9.74586C0.299941 9.75586 0.289941 9.77586 0.279941 9.78586C0.279941 9.78586 0.279941 9.80586 0.279941 9.81586L0.259941 9.86586V9.91586H0.189941V12.0859L0.209941 12.1359C0.209941 12.1459 0.209941 12.1559 0.219941 12.1659C0.219941 12.1659 0.219941 12.1759 0.219941 12.1859L0.239941 12.2359C0.239941 12.2359 0.259941 12.2859 0.269941 12.3059C0.269941 12.3259 0.289941 12.3459 0.299941 12.3659V12.3759H0.319941C0.319941 12.3759 0.339941 12.4159 0.349941 12.4359C0.349941 12.4359 0.369941 12.4759 0.379941 12.4859C0.419941 12.5559 0.459941 12.6159 0.509941 12.6659C0.509941 12.6659 0.529941 12.6959 0.549941 12.7059C0.549941 12.7059 0.579941 12.7359 0.589941 12.7459C0.609941 12.7659 0.629941 12.7859 0.629941 12.7859C0.699941 12.8459 0.769941 12.8959 0.849941 12.9459H0.889941C0.889941 12.9459 0.889941 12.9459 0.899941 12.9659C0.909941 12.9959 0.929941 13.0559 0.929941 13.1459C0.929941 14.9559 0.929941 16.7959 0.929941 18.5759V20.1959C0.929941 20.8059 0.929941 21.4359 0.929941 22.0559C0.929941 22.1259 0.929941 22.1659 0.909941 22.1959C0.899941 22.2259 0.879941 22.2559 0.809941 22.2959C0.809941 22.2959 0.779941 22.3159 0.749941 22.3359C0.749941 22.3359 0.679941 22.3759 0.659941 22.4059C0.659941 22.4059 0.629941 22.4359 0.609941 22.4459C0.599941 22.4559 0.579941 22.4759 0.559941 22.4959C0.549941 22.5059 0.539941 22.5159 0.529941 22.5259C0.529941 22.5259 0.509941 22.5559 0.499941 22.5659C0.499941 22.5659 0.479941 22.5959 0.469941 22.6159C0.469941 22.6159 0.449941 22.6459 0.439941 22.6659C0.439941 22.6759 0.419941 22.6959 0.409941 22.7059C0.409941 22.7059 0.409941 22.7059 0.409941 22.7159C0.409941 22.7159 0.379941 22.7859 0.359941 22.8159C0.359941 22.8159 0.339941 22.8559 0.329941 22.8759C0.329941 22.8759 0.319941 22.9059 0.309941 22.9159V22.9359L0.589941 23.0459H0.529941L0.249941 22.9359C0.249941 22.9359 0.239941 22.9659 0.229941 22.9859C0.229941 22.9859 0.209941 23.0359 0.209941 23.0459L0.189941 23.0959V25.2659L0.199941 25.3459C0.199941 25.3459 0.209941 25.3959 0.219941 25.4059C0.219941 25.4059 0.219941 25.4159 0.219941 25.4259C0.219941 25.4259 0.239941 25.4759 0.239941 25.4859C0.249941 25.5159 0.269941 25.5459 0.279941 25.5859C0.279941 25.5859 0.309941 25.6459 0.319941 25.6659C0.319941 25.6659 0.339941 25.7059 0.359941 25.7259C0.359941 25.7259 0.359941 25.7259 0.359941 25.7359C0.359941 25.7359 0.379941 25.7559 0.379941 25.7659V25.7759C0.379941 25.7859 0.399941 25.7959 0.409941 25.8159C0.409941 25.8159 0.419941 25.8259 0.429941 25.8359C0.429941 25.8359 0.449941 25.8559 0.449941 25.8659C0.469941 25.8859 0.479941 25.8959 0.499941 25.9159C0.539941 25.9559 0.579941 25.9859 0.619941 26.0259C0.619941 26.0259 0.639941 26.0359 0.649941 26.0459C0.709941 26.0959 0.779941 26.1359 0.849941 26.1659C0.849941 26.1659 0.869941 26.1759 0.879941 26.1759C0.879941 26.1759 0.929941 26.1959 0.949941 26.2059C0.949941 26.2059 0.949941 26.2059 0.959941 26.2059C0.959941 26.2059 0.959941 26.2059 0.969941 26.2059C0.969941 26.2059 0.979941 26.2059 0.989941 26.2059C0.989941 26.2059 1.01994 26.2159 1.02994 26.2259C1.02994 26.2259 1.03994 26.2259 1.04994 26.2259C1.04994 26.2259 1.06994 26.2259 1.09994 26.2459H24.7799L24.6899 25.9459L24.7799 26.2359C24.7799 26.2359 24.8299 26.2159 24.8599 26.2059C24.8599 26.2059 24.9099 26.1859 24.9299 26.1759C24.9299 26.1759 24.9799 26.1559 25.0099 26.1459C25.0099 26.1459 25.0499 26.1259 25.0699 26.1159C25.0699 26.1159 25.1099 26.0959 25.1199 26.0859C25.1199 26.0859 25.1399 26.0759 25.1499 26.0659C25.1599 26.0659 25.1799 26.0459 25.1899 26.0359C25.1899 26.0359 25.2599 25.9859 25.2799 25.9659C25.2999 25.9459 25.3199 25.9259 25.3399 25.9059C25.3599 25.8859 25.3699 25.8659 25.3899 25.8459C25.3899 25.8459 25.4499 25.7759 25.4699 25.7459C25.4699 25.7459 25.4899 25.7159 25.4999 25.6959C25.4999 25.6959 25.5299 25.6559 25.5299 25.6359C25.5299 25.6359 25.5299 25.6259 25.5399 25.6159C25.5399 25.6159 25.5399 25.6059 25.5399 25.5959C25.5399 25.5959 25.5399 25.5959 25.5399 25.5859C25.5399 25.5859 25.5699 25.5159 25.5899 25.4859C25.5899 25.4859 25.5899 25.4859 25.5899 25.4759V25.4559C25.5899 25.4359 25.6099 25.4059 25.6199 25.3859C25.6199 25.3859 25.6199 25.3559 25.6299 25.3559C25.6299 25.3559 25.6299 25.3359 25.6299 25.3259M8.56994 16.4159V21.9959H5.89994V16.5759C6.22994 16.5459 6.55994 16.5459 6.89994 16.5559C7.43994 16.5659 8.00994 16.5759 8.57994 16.4059L8.56994 16.4159ZM2.91994 14.6859C2.92994 15.5759 3.51994 16.3059 4.37994 16.5059C4.46994 16.5259 4.56994 16.5359 4.64994 16.5459L4.68994 16.2459L4.65994 16.5459C4.65994 16.5459 4.70994 16.5459 4.73994 16.5459V21.9759H2.07994V13.0159H2.92994V13.6159C2.92994 14.0059 2.92994 14.4159 2.92994 14.8159L2.91994 14.6859ZM2.27994 11.8659C2.03994 11.8659 1.78994 11.8659 1.54994 11.8659C1.43994 11.8659 1.39994 11.8359 1.36994 11.8159C1.34994 11.7959 1.31994 11.7459 1.31994 11.6359C1.31994 11.0959 1.31994 10.5559 1.31994 10.0459C1.31994 9.91586 1.35994 9.87586 1.37994 9.85586C1.39994 9.83586 1.44994 9.81586 1.50994 9.81586C1.85994 9.81586 2.18994 9.81586 2.55994 9.81586C2.67994 9.81586 2.79994 9.81586 2.92994 9.81586V11.8659H2.27994ZM1.30994 23.4959C1.30994 23.2559 1.34994 23.2059 1.35994 23.1959C1.35994 23.1959 1.40994 23.1459 1.64994 23.1459H24.2899C24.5499 23.1459 24.5999 23.1859 24.6099 23.1959C24.6099 23.1959 24.6599 23.2559 24.6599 23.5259V24.8459C24.6599 25.0959 24.6199 25.1459 24.6099 25.1559C24.6099 25.1559 24.5499 25.2059 24.3099 25.2059H1.69994C1.41994 25.2059 1.36994 25.1659 1.36994 25.1559C1.36994 25.1559 1.31994 25.0959 1.31994 24.8159V23.4959H1.30994ZM9.71994 13.0259H12.3899V22.0059H9.71994V13.0259ZM13.5499 13.0259H16.2199V22.0059H13.5499V13.0259ZM17.3899 13.0159H20.0599V22.0059H17.3899V13.0159ZM21.2199 13.0159H23.8899V22.0059H21.2199V13.0159ZM4.04994 9.32586H8.58994V14.6759C8.58994 15.0059 8.49994 15.2059 8.36994 15.3359C8.23994 15.4659 8.02994 15.5559 7.69994 15.5559C7.20994 15.5559 6.73994 15.5559 6.28994 15.5559C5.83994 15.5559 5.36994 15.5559 4.91994 15.5559C4.59994 15.5559 4.39994 15.4659 4.26994 15.3359C4.13994 15.2059 4.04994 15.0059 4.04994 14.6959V11.2959L3.74994 11.2859H4.04994V9.32586ZM0.529941 9.43586L0.639941 9.49586L0.539941 9.43586H0.529941Z" fill="black"/>
<path d="M4.66994 16.5559L4.69994 16.2659L4.65994 16.5559H4.66994Z" fill="black"/>
<path d="M12.4499 4.16586C12.4699 4.19586 12.4899 4.22586 12.5099 4.25586C12.6399 4.45586 12.7499 4.62586 12.8099 4.81586C12.9699 5.29586 12.8899 5.76586 12.5499 6.23586L12.7899 6.41586H12.7799L12.5499 6.23586C12.4599 6.35586 12.3999 6.51586 12.4299 6.68586L12.7299 6.63586L12.4399 6.68586C12.4699 6.84586 12.5599 6.96586 12.6799 7.04586C12.8099 7.12586 12.9599 7.16586 13.1199 7.13586C13.2699 7.09586 13.3899 7.00586 13.4699 6.88586C13.5899 6.71586 13.6799 6.57586 13.7499 6.43586L13.4799 6.31586H13.4899L13.7499 6.43586C13.9699 5.94586 14.0599 5.46586 14.0199 4.99586C13.9699 4.51586 13.7799 4.06586 13.4699 3.63586C13.0099 3.00586 12.9899 2.33586 13.3899 1.75586C13.4499 1.67586 13.4999 1.58586 13.5299 1.50586C13.5599 1.43586 13.5899 1.32586 13.5699 1.21586C13.5699 1.21586 13.5499 1.14586 13.5499 1.13586V1.10586C13.5499 1.10586 13.5399 1.08586 13.5299 1.06586C13.4699 0.965859 13.3699 0.875859 13.2799 0.815859L13.1999 0.755859H12.8499L12.7599 0.845859C12.7599 0.845859 12.7199 0.895859 12.6999 0.915859C12.6099 1.00586 12.4899 1.12586 12.4099 1.26586C12.1299 1.74586 11.9899 2.23586 12.0099 2.73586C12.0299 3.23586 12.1999 3.71586 12.4999 4.19586L12.4499 4.16586ZM12.9399 1.43586L13.1199 1.55586L13.0899 1.53586L12.9499 1.43586H12.9399ZM12.9099 3.85586L12.7199 3.97586H12.6999L12.9099 3.85586Z" fill="black"/>
<path d="M9.00994 5.20586C9.11994 5.36586 9.20994 5.52586 9.23994 5.70586C9.25994 5.86586 9.23994 6.06586 9.07994 6.31586C8.97994 6.46586 8.96994 6.64586 9.03994 6.80586C9.11994 6.98586 9.27994 7.10586 9.44994 7.16586L9.58994 7.21586L9.70994 7.12586C9.72994 7.11586 9.73994 7.10586 9.75994 7.09586C9.75994 7.09586 9.84994 7.03586 9.89994 6.99586C9.93994 6.96586 9.99994 6.91586 10.0499 6.85586C10.5299 6.21586 10.4999 5.39586 10.0299 4.71586C9.90994 4.54586 9.85994 4.39586 9.85994 4.26586C9.85994 4.13586 9.88994 3.98586 9.99994 3.82586C10.1199 3.63586 10.1699 3.44586 10.0999 3.25586C10.0399 3.09586 9.90994 3.00586 9.87994 2.99586C9.78994 2.93586 9.67994 2.89586 9.56994 2.89586C9.29994 2.89586 9.12994 3.09586 9.05994 3.19586L9.28994 3.35586H9.30994L9.06994 3.19586C8.63994 3.79586 8.61994 4.61586 9.02994 5.20586H9.00994Z" fill="black"/>
<path d="M17.2299 8.86586C17.1299 8.75586 16.9899 8.69586 16.8299 8.69586C16.6799 8.69586 16.5299 8.75586 16.4299 8.86586C16.3299 8.96586 16.2599 9.11586 16.2699 9.26586C16.2699 9.56586 16.5299 9.81586 16.8299 9.81586C16.9799 9.81586 17.1099 9.75586 17.2099 9.65586C17.2099 9.65586 17.2799 9.57586 17.3099 9.52586C17.3099 9.51586 17.3199 9.49586 17.3299 9.48586C17.3299 9.47586 17.3399 9.45586 17.3499 9.43586C17.3599 9.40586 17.3699 9.36586 17.3699 9.33586V9.31586C17.3699 9.31586 17.3699 9.29586 17.3699 9.28586C17.3699 9.13586 17.3199 8.99586 17.2199 8.88586L17.2299 8.86586ZM16.8599 9.23586C16.8599 9.23586 16.8599 9.24586 16.8599 9.25586H16.8299L16.8499 9.22586L16.8599 9.23586ZM16.7899 9.27586H16.8099L16.7999 9.28586C16.7999 9.28586 16.7999 9.28586 16.7999 9.27586H16.7899ZM16.8199 9.29586H16.8099C16.8099 9.29586 16.8099 9.29586 16.7999 9.29586H16.8099L16.8199 9.28586V9.30586V9.29586ZM16.8199 9.25586H16.7899C16.7899 9.25586 16.7999 9.25586 16.8099 9.25586H16.8299L16.7999 9.27586L16.8199 9.25586ZM16.9999 9.45586L16.8499 9.29586C16.8499 9.29586 16.8499 9.29586 16.8299 9.29586V9.27586V9.25586L16.8399 9.27586L16.9899 9.43586L16.9999 9.45586Z" fill="black"/>
<path d="M15.9099 5.27586L16.1299 5.11586L16.1599 5.09586L15.9199 5.26586C16.0599 5.45586 16.1199 5.62586 16.1199 5.77586C16.1199 5.92586 16.0799 6.08586 15.9599 6.25586L16.1799 6.40586L15.9699 6.25586C15.8899 6.37586 15.8499 6.51586 15.8699 6.67586C15.8999 6.83586 15.9899 6.95586 16.1099 7.03586C16.2399 7.12586 16.3899 7.16586 16.5499 7.12586C16.6999 7.09586 16.8199 6.99586 16.9099 6.88586C17.1399 6.57586 17.2699 6.21586 17.2799 5.83586H16.9899H17.2899C17.2899 5.41586 17.1699 5.03586 16.9099 4.68586L16.6899 4.85586H16.6699L16.9099 4.68586C16.7999 4.53586 16.7499 4.39586 16.7499 4.25586C16.7499 4.12586 16.7899 3.97586 16.8899 3.81586L16.6099 3.63586L16.6999 3.69586L16.8899 3.81586C17.0099 3.62586 17.0599 3.42586 16.9899 3.24586C16.9299 3.08586 16.7999 2.99586 16.7699 2.98586L16.6099 3.23586L16.7799 2.98586C16.6899 2.92586 16.5899 2.88586 16.4799 2.88586C16.2099 2.88586 16.0399 3.09586 15.9699 3.18586L16.2099 3.36586H16.1899L15.9599 3.18586C15.5099 3.80586 15.5099 4.64586 15.9599 5.26586L15.9099 5.27586ZM16.6699 6.72586L16.6499 6.70586L16.4699 6.56586L16.6699 6.72586Z" fill="black"/>
</svg>
