<svg width="24" height="24" viewBox="0 0 24 24" fill="none" xmlns="http://www.w3.org/2000/svg">
<circle cx="22" cy="21" r="2" fill="url(#paint0_radial_2806_79868)"/>
<mask id="mask0_2806_79868" style="mask-type:alpha" maskUnits="userSpaceOnUse" x="20" y="19" width="4" height="4">
<circle cx="22" cy="21" r="2" fill="#D9D9D9"/>
</mask>
<g mask="url(#mask0_2806_79868)">
<g filter="url(#filter0_f_2806_79868)">
<circle cx="23" cy="22.3994" r="3" fill="white" fill-opacity="0.17"/>
</g>
<g filter="url(#filter1_f_2806_79868)">
<circle cx="21.6665" cy="23.333" r="3" fill="white" fill-opacity="0.11"/>
</g>
</g>
<circle cx="12" cy="12" r="10" fill="url(#paint1_radial_2806_79868)"/>
<circle cx="12" cy="12" r="10" fill="url(#paint2_angular_2806_79868)"/>
<mask id="mask1_2806_79868" style="mask-type:alpha" maskUnits="userSpaceOnUse" x="2" y="2" width="20" height="20">
<circle cx="12" cy="12" r="10" fill="url(#paint3_radial_2806_79868)"/>
<circle cx="12" cy="12" r="10" fill="url(#paint4_angular_2806_79868)"/>
</mask>
<g mask="url(#mask1_2806_79868)">
<g filter="url(#filter2_f_2806_79868)">
<circle cx="17" cy="19" r="15" fill="white" fill-opacity="0.17"/>
</g>
<g filter="url(#filter3_f_2806_79868)">
<circle cx="6" cy="25" r="15" fill="white" fill-opacity="0.11"/>
</g>
</g>
<g opacity="0.23" filter="url(#filter4_f_2806_79868)">
<rect x="10.2417" y="17.2417" width="1.92005" height="3.8401" rx="0.960025" transform="rotate(107.668 10.2417 17.2417)" fill="#3F0E7F"/>
</g>
<path d="M12.5527 15.488L11.9207 13.6937H9.45013L8.81812 15.488H7.69995L10.1042 9H11.2799L13.6797 15.488H12.5527ZM11.6467 12.7832L11.0324 11.0154C11.0088 10.9387 10.9749 10.8312 10.9307 10.6927C10.8865 10.5513 10.8423 10.4084 10.7981 10.264C10.7539 10.1167 10.7171 9.99295 10.6876 9.89277C10.6582 10.0136 10.6213 10.1491 10.5771 10.2994C10.5359 10.4467 10.4946 10.5852 10.4534 10.7148C10.4151 10.8445 10.3856 10.9446 10.365 11.0154L9.74625 12.7832H11.6467Z" fill="white"/>
<path d="M14.5327 15.488V9.02652H15.5934V15.488H14.5327Z" fill="white"/>
<g opacity="0.2" filter="url(#filter5_f_2806_79868)">
<rect x="19.355" y="10.7925" width="2" height="4" rx="1" transform="rotate(35.6966 19.355 10.7925)" fill="#7719C4"/>
</g>
<g opacity="0.5" filter="url(#filter6_f_2806_79868)">
<rect x="9" y="4.39551" width="2" height="4" rx="1" transform="rotate(-44.2436 9 4.39551)" fill="#7719C4"/>
</g>
<defs>
<filter id="filter0_f_2806_79868" x="18.5" y="17.8994" width="9" height="9" filterUnits="userSpaceOnUse" color-interpolation-filters="sRGB">
<feFlood flood-opacity="0" result="BackgroundImageFix"/>
<feBlend mode="normal" in="SourceGraphic" in2="BackgroundImageFix" result="shape"/>
<feGaussianBlur stdDeviation="0.75" result="effect1_foregroundBlur_2806_79868"/>
</filter>
<filter id="filter1_f_2806_79868" x="18.1665" y="19.833" width="7" height="7" filterUnits="userSpaceOnUse" color-interpolation-filters="sRGB">
<feFlood flood-opacity="0" result="BackgroundImageFix"/>
<feBlend mode="normal" in="SourceGraphic" in2="BackgroundImageFix" result="shape"/>
<feGaussianBlur stdDeviation="0.25" result="effect1_foregroundBlur_2806_79868"/>
</filter>
<filter id="filter2_f_2806_79868" x="-4" y="-2" width="42" height="42" filterUnits="userSpaceOnUse" color-interpolation-filters="sRGB">
<feFlood flood-opacity="0" result="BackgroundImageFix"/>
<feBlend mode="normal" in="SourceGraphic" in2="BackgroundImageFix" result="shape"/>
<feGaussianBlur stdDeviation="3" result="effect1_foregroundBlur_2806_79868"/>
</filter>
<filter id="filter3_f_2806_79868" x="-11" y="8" width="34" height="34" filterUnits="userSpaceOnUse" color-interpolation-filters="sRGB">
<feFlood flood-opacity="0" result="BackgroundImageFix"/>
<feBlend mode="normal" in="SourceGraphic" in2="BackgroundImageFix" result="shape"/>
<feGaussianBlur stdDeviation="1" result="effect1_foregroundBlur_2806_79868"/>
</filter>
<filter id="filter4_f_2806_79868" x="4.24585" y="14.3223" width="7.75" height="6.50293" filterUnits="userSpaceOnUse" color-interpolation-filters="sRGB">
<feFlood flood-opacity="0" result="BackgroundImageFix"/>
<feBlend mode="normal" in="SourceGraphic" in2="BackgroundImageFix" result="shape"/>
<feGaussianBlur stdDeviation="1" result="effect1_foregroundBlur_2806_79868"/>
</filter>
<filter id="filter5_f_2806_79868" x="15.4165" y="9.18799" width="7.16724" height="7.62451" filterUnits="userSpaceOnUse" color-interpolation-filters="sRGB">
<feFlood flood-opacity="0" result="BackgroundImageFix"/>
<feBlend mode="normal" in="SourceGraphic" in2="BackgroundImageFix" result="shape"/>
<feGaussianBlur stdDeviation="1" result="effect1_foregroundBlur_2806_79868"/>
</filter>
<filter id="filter6_f_2806_79868" x="7.41406" y="1.41406" width="7.39551" height="7.43311" filterUnits="userSpaceOnUse" color-interpolation-filters="sRGB">
<feFlood flood-opacity="0" result="BackgroundImageFix"/>
<feBlend mode="normal" in="SourceGraphic" in2="BackgroundImageFix" result="shape"/>
<feGaussianBlur stdDeviation="1" result="effect1_foregroundBlur_2806_79868"/>
</filter>
<radialGradient id="paint0_radial_2806_79868" cx="0" cy="0" r="1" gradientUnits="userSpaceOnUse" gradientTransform="translate(22 21) rotate(90) scale(2)">
<stop stop-color="#3B0D7B"/>
<stop offset="0.875" stop-color="#6011CE"/>
</radialGradient>
<radialGradient id="paint1_radial_2806_79868" cx="0" cy="0" r="1" gradientUnits="userSpaceOnUse" gradientTransform="translate(12 12) rotate(90) scale(10)">
<stop stop-color="#3B0D7B"/>
<stop offset="0.729167" stop-color="#801ACF"/>
<stop offset="0.869792" stop-color="#8840EE"/>
<stop offset="1" stop-color="#7525E5"/>
</radialGradient>
<radialGradient id="paint2_angular_2806_79868" cx="0" cy="0" r="1" gradientUnits="userSpaceOnUse" gradientTransform="translate(12 12) rotate(-90) scale(10)">
<stop stop-color="#3B0D7B"/>
<stop offset="0.625" stop-color="#801ACF" stop-opacity="0.87"/>
</radialGradient>
<radialGradient id="paint3_radial_2806_79868" cx="0" cy="0" r="1" gradientUnits="userSpaceOnUse" gradientTransform="translate(12 12) rotate(90) scale(10)">
<stop stop-color="#3B0D7B"/>
<stop offset="0.729167" stop-color="#801ACF"/>
<stop offset="0.869792" stop-color="#8840EE"/>
<stop offset="1" stop-color="#7525E5"/>
</radialGradient>
<radialGradient id="paint4_angular_2806_79868" cx="0" cy="0" r="1" gradientUnits="userSpaceOnUse" gradientTransform="translate(12 12) rotate(-90) scale(10)">
<stop stop-color="#3B0D7B"/>
<stop offset="0.625" stop-color="#801ACF" stop-opacity="0.87"/>
</radialGradient>
</defs>
</svg>
