<svg width="25" height="25" viewBox="0 0 25 25" fill="none" xmlns="http://www.w3.org/2000/svg">
<path fill-rule="evenodd" clip-rule="evenodd" d="M12.7152 5.3679L20.2416 10.6991V19.8492H13.9289C13.1203 20.5026 12.5712 20.8889 11.4553 21.4342H20.9549C21.4364 21.4342 21.8267 21.0439 21.8267 20.5624V11.9239H22.198C22.9783 11.9239 23.2975 10.9213 22.6607 10.4702L13.1954 3.76562C13.1053 3.69703 12.9301 3.59458 12.6861 3.60289C12.4575 3.61068 12.3029 3.71358 12.2507 3.75082C12.161 3.81492 5.77359 8.37874 3.12077 10.4986C2.81286 10.7447 2.75793 11.1391 2.88367 11.4357C3.00219 11.7152 3.28199 11.9239 3.62111 11.9239H3.99478V20.5624C3.99478 21.035 4.37552 21.4342 4.86588 21.4342H9.54248C9.88911 21.4342 10.2773 21.3047 10.6163 21.1637C10.9832 21.011 11.4017 20.7971 11.844 20.5417C12.7302 20.0302 13.7594 19.3253 14.7391 18.5339C15.7163 17.7447 16.6686 16.8499 17.3846 15.9541C18.0644 15.1036 18.6413 14.1179 18.6562 13.151C18.8158 11.2494 17.507 9.5463 15.4864 9.5463C14.686 9.5463 14.0152 9.7667 13.4422 10.1908C13.1911 10.3767 12.968 10.595 12.7652 10.8355C12.5419 10.5538 12.2866 10.3118 11.9933 10.1153C11.3884 9.71003 10.6937 9.5463 9.93874 9.5463C9.07153 9.5463 8.22726 9.88576 7.62139 10.5309C7.01347 11.1782 6.68803 12.0873 6.76892 13.1479C6.7801 13.8177 7.1079 14.4607 7.46325 14.9827C7.83925 15.5351 8.32616 16.0666 8.79099 16.5199C9.25926 16.9766 9.72457 17.3728 10.0712 17.6538C10.2451 17.7948 10.3905 17.9079 10.4933 17.9864C10.5447 18.0257 10.5856 18.0563 10.6141 18.0776L10.6474 18.1022L10.6567 18.1091L10.6604 18.1118C11.1156 17.9193 11.7304 17.5409 12.1915 17.139C11.8694 16.8779 10.321 15.7981 9.8977 15.3852C9.47093 14.969 9.06625 14.5208 8.77356 14.0908C8.46643 13.6396 8.35369 13.3108 8.35369 13.1127V13.0797L8.35094 13.0468C8.2954 12.381 8.49644 11.9145 8.77679 11.616C9.06504 11.3091 9.48212 11.1314 9.93874 11.1314C10.46 11.1314 10.8269 11.2417 11.111 11.4321C11.3995 11.6254 11.6753 11.9497 11.9269 12.5019C12.216 13.1359 13.1112 13.2008 13.4754 12.5846C13.7941 12.0454 14.0819 11.6894 14.3852 11.4648C14.6675 11.2559 15.0028 11.1314 15.4864 11.1314C16.4636 11.1314 17.1788 11.9265 17.0749 13.039L17.0715 13.0757V13.1127C17.0715 13.5204 16.7938 14.1545 16.1464 14.9645C15.5262 15.7404 14.6671 16.5546 13.7432 17.3008C12.8218 18.045 11.8603 18.7022 11.0516 19.169C10.6466 19.4028 10.2917 19.582 10.0075 19.7002C9.86548 19.7593 9.75051 19.7992 9.66236 19.8234C9.57774 19.8466 9.54107 19.8491 9.54107 19.8491L9.54207 19.8492H5.57984V10.5982C8.01683 8.74873 11.4811 6.25342 12.7152 5.3679ZM19.0744 3.7474C19.1182 3.7474 19.1537 3.78289 19.1537 3.82666V6.93362L17.5686 5.86659V3.82666C17.5686 3.78289 17.6041 3.7474 17.6479 3.7474H19.0744Z" fill="#8434F4"/>
</svg>
