<svg width="47" height="18" viewBox="0 0 47 18" fill="none" xmlns="http://www.w3.org/2000/svg">
<path fill-rule="evenodd" clip-rule="evenodd" d="M24.7118 6.16822C24.3175 5.83115 23.6445 5.6628 22.6926 5.6628H20.5455V12.4073H22.151V10.2935H22.8702C23.743 10.2935 24.3831 10.0982 24.7905 9.70733C25.2493 9.26939 25.4802 8.68624 25.4802 7.95825C25.4802 7.20334 25.2239 6.60653 24.7118 6.16822ZM22.8302 8.76738H22.151V7.18893H22.7612C23.5035 7.18893 23.8747 7.45358 23.8747 7.9829C23.8747 8.50538 23.5263 8.76738 22.8302 8.76738ZM28.2275 5.66242H26.5533V12.407H30.1679V10.8805H28.2275V5.66242ZM33.4479 5.66242L30.8181 12.407H32.6205L32.9652 11.4265H35.2503L35.5655 12.407H37.3881L34.7769 5.66242H33.4479ZM33.4281 10.0611L34.1178 7.75578L34.7967 10.0611H33.4281ZM38.2244 12.407H39.8988V5.66242H38.2244V12.407ZM46.3998 6.92655C46.1883 6.61482 45.9167 6.34999 45.6016 6.14813C45.0961 5.82432 44.4064 5.6628 43.5332 5.6628H41.3271V12.407H43.9077C44.8402 12.407 45.5885 12.0972 46.1532 11.4769C46.718 10.857 47 10.0342 47 9.00929C47 8.19409 46.8001 7.49984 46.3998 6.92655ZM43.7204 10.8801H43.0016V7.18931H43.7305C44.2426 7.18931 44.6362 7.35235 44.9122 7.67729C45.1882 8.00223 45.3263 8.46329 45.3263 9.0601C45.3263 10.2734 44.791 10.8801 43.7204 10.8801ZM6.95195 0L1.52565 1.44461L0.0302145 6.99138L1.90053 8.94332L0 10.863L1.4074 16.4341L6.8102 17.9685L8.71111 16.0484L10.5814 18L16.0077 16.5554L17.5028 11.0082L15.6328 9.05706L17.5334 7.13736L16.126 1.56594L10.7224 0.0314705L8.82227 1.95117L6.95195 0ZM3.62201 2.51158L6.48046 1.75022L7.73044 3.05454L5.9075 4.89575L3.62201 2.51158ZM9.89694 3.07198L11.1671 1.78927L14.0132 2.59765L11.6904 4.94353L9.89694 3.07198ZM1.74274 6.53601L2.53019 3.61456L4.81493 5.99874L2.99236 7.83995L1.74274 6.53563V6.53601ZM12.7643 6.06471L15.0871 3.71807L15.8279 6.65279L14.5582 7.93588L12.7643 6.06471ZM6.98179 6.01656L8.80474 4.17534L10.5978 6.04689L8.77527 7.88811L6.98179 6.01656ZM4.06702 8.96076L5.88959 7.11954L7.68382 8.99109L5.8605 10.8323L4.06702 8.96076ZM9.84994 9.00891L11.6725 7.1677L13.466 9.03924L11.643 10.8805L9.84994 9.00891ZM1.7047 11.3472L2.9752 10.0637L4.7683 11.9357L2.44626 14.2812L1.7047 11.3472ZM6.93479 11.9531L8.75774 10.1119L10.5512 11.9834L8.72864 13.8247L6.93479 11.9531ZM12.7173 12.0016L14.5403 10.1604L15.7903 11.4644L15.0032 14.3858L12.7173 12.0016ZM3.52018 15.4027L5.84259 13.0561L7.63681 14.9276L6.36631 16.2111L3.52018 15.4027ZM9.80294 14.9455L11.6255 13.1042L13.9106 15.4888L11.0525 16.2498L9.80294 14.9455Z" fill="white"/>
</svg>
